<svg width="31" height="30" viewBox="0 0 31 30" fill="none" xmlns="http://www.w3.org/2000/svg">
<path d="M30.4583 12.0623H29.25V12H15.75V18H24.2273C22.9905 21.4928 19.6672 24 15.75 24C10.7797 24 6.75 19.9702 6.75 15C6.75 10.0297 10.7797 6 15.75 6C18.0443 6 20.1315 6.8655 21.7208 8.27925L25.9635 4.0365C23.2845 1.53975 19.701 0 15.75 0C7.46625 0 0.75 6.71625 0.75 15C0.75 23.2838 7.46625 30 15.75 30C24.0338 30 30.75 23.2838 30.75 15C30.75 13.9943 30.6465 13.0125 30.4583 12.0623Z" fill="#FBC02D"/>
<path d="M2.47949 8.01825L7.40774 11.6325C8.74124 8.331 11.9707 6 15.75 6C18.0442 6 20.1315 6.8655 21.7207 8.27925L25.9635 4.0365C23.2845 1.53975 19.701 0 15.75 0C9.98849 0 4.99199 3.25275 2.47949 8.01825Z" fill="#E53935"/>
<path d="M15.75 30C19.6245 30 23.145 28.5172 25.8067 26.106L21.1642 22.1775C19.6582 23.3182 17.7862 24 15.75 24C11.8485 24 8.53574 21.5122 7.28774 18.0405L2.39624 21.8092C4.87874 26.667 9.92024 30 15.75 30Z" fill="#4CAF50"/>
<path d="M30.4583 12.0623L30.4463 12H29.25H15.75V18H24.2273C23.6333 19.6778 22.554 21.1245 21.162 22.1782L21.1642 22.1768L25.8068 26.1052C25.4783 26.4037 30.75 22.5 30.75 15C30.75 13.9943 30.6465 13.0125 30.4583 12.0623Z" fill="#1565C0"/>
</svg>
