<svg width="31" height="30" viewBox="0 0 31 30" fill="none" xmlns="http://www.w3.org/2000/svg">
<rect x="0.25" width="30" height="30" rx="15" fill="#D9D9D9"/>
<path d="M15.25 0C6.96217 0 0.25 6.71217 0.25 15C0.25 21.6378 4.54391 27.2439 10.5061 29.2304C11.2561 29.3622 11.5365 28.9122 11.5365 28.5183C11.5365 28.1622 11.5183 26.9817 11.5183 25.7243C7.75 26.4183 6.77565 24.8061 6.47565 23.9635C6.30609 23.5317 5.57565 22.2 4.93652 21.8439C4.41217 21.5622 3.66217 20.8683 4.91826 20.85C6.1 20.8317 6.94391 21.9378 7.22565 22.3878C8.57565 24.6574 10.7317 24.0183 11.5939 23.6243C11.7243 22.65 12.1183 21.9939 12.55 21.6183C9.21217 21.2439 5.72565 19.95 5.72565 14.2122C5.72565 12.5817 6.30609 11.2317 7.26217 10.1817C7.11217 9.80609 6.58783 8.26826 7.41217 6.20609C7.41217 6.20609 8.66826 5.81217 11.5378 7.74391C12.7378 7.40609 14.0122 7.23783 15.2878 7.23783C16.5622 7.23783 17.8378 7.40739 19.0378 7.74391C21.9074 5.79391 23.1622 6.20609 23.1622 6.20609C23.9878 8.26826 23.4622 9.80609 23.3122 10.1817C24.2683 11.2317 24.85 12.5622 24.85 14.2122C24.85 19.9683 21.3439 21.2426 18.0061 21.6183C18.55 22.0878 19.0183 22.9878 19.0183 24.3939C19.0183 26.4 19 28.0122 19 28.5183C19 28.9122 19.2817 29.3817 20.0304 29.2317C25.9574 27.2439 30.25 21.6183 30.25 15C30.25 6.71217 23.5378 0 15.25 0Z" fill="black"/>
</svg>
